# xmcd CD database file
#
# Track frame offsets:
#	150
#	23893
#	37299
#	54896
#	73600
#	93819
#	107455
#	129435
#	143094
#	158266
#	171006
#
# Disc length: 2497 seconds
#
# Revision: 0
# Processed by: cddbd v1.4PL0 Copyright (c) Steve Scherf et al.
# Submitted via: Feurio! 1.61 - http://www.feurio.com
#
DISCID=8109bf0b
DTITLE=Bo Kaspers Orkester - Kaos
DYEAR=1900
DGENRE=
TTITLE0=Människor Som Ingen Vill Se
TTITLE1=Fullständigt kaos
TTITLE2=Ett ögonblick i sänder
TTITLE3=Det smartaste jag gjort
TTITLE4=Kasta något tungt
TTITLE5=En tur på landet
TTITLE6=Det vi tycker om
TTITLE7=Vackert land
TTITLE8=Det är inte mig det är fel på
TTITLE9=Innan Klockan Slagit Tolv
TTITLE10=Felicia pratar
EXTD=
EXTT0=
EXTT1=
EXTT2=
EXTT3=
EXTT4=
EXTT5=
EXTT6=
EXTT7=
EXTT8=
EXTT9=
EXTT10=
PLAYORDER=
